<?xml version="1.0" standalone="no"?><!DOCTYPE svg PUBLIC "-//W3C//DTD SVG 1.1//EN" "http://www.w3.org/Graphics/SVG/1.1/DTD/svg11.dtd"><svg t="1655347413229" class="icon" viewBox="0 0 1024 1024" version="1.1" xmlns="http://www.w3.org/2000/svg" p-id="1517" xmlns:xlink="http://www.w3.org/1999/xlink" width="200" height="200"><defs><style type="text/css"></style></defs><path d="M0 0m204.8 0l614.4 0q204.8 0 204.8 204.8l0 614.4q0 204.8-204.8 204.8l-614.4 0q-204.8 0-204.8-204.8l0-614.4q0-204.8 204.8-204.8Z" fill="#71A8FF" p-id="1518"></path><path d="M819.2 0H534.272A756.48 756.48 0 0 0 0 483.584V819.2a204.8 204.8 0 0 0 204.8 204.8h614.4a204.8 204.8 0 0 0 204.8-204.8V204.8a204.8 204.8 0 0 0-204.8-204.8z" fill="#73A2FF" p-id="1519"></path><path d="M819.2 0h-3.84a755.2 755.2 0 0 0-539.392 1024H819.2a204.8 204.8 0 0 0 204.8-204.8V204.8a204.8 204.8 0 0 0-204.8-204.8z" fill="#739BFF" p-id="1520"></path><path d="M497.152 721.152A752.384 752.384 0 0 0 560.384 1024H819.2a204.8 204.8 0 0 0 204.8-204.8V204.8a204.8 204.8 0 0 0-89.088-168.96 755.2 755.2 0 0 0-437.76 685.312z" fill="#7193FF" p-id="1521"></path><path d="M837.632 582.4a25.6 25.6 0 0 1-9.216-49.408 64 64 0 1 0-84.992-76.8 25.6 25.6 0 1 1-49.408-13.056 115.2 115.2 0 1 1 153.6 136.96 25.6 25.6 0 0 1-9.984 2.304z" fill="#E9F6FF" p-id="1522"></path><path d="M281.6 268.8h435.2a51.2 51.2 0 0 1 51.2 51.2v281.6a153.6 153.6 0 0 1-153.6 153.6h-230.4a153.6 153.6 0 0 1-153.6-153.6v-281.6a51.2 51.2 0 0 1 51.2-51.2z" fill="#E9F6FF" p-id="1523"></path><path d="M691.2 601.6v-332.8H281.6a51.2 51.2 0 0 0-51.2 51.2v281.6a153.6 153.6 0 0 0 153.6 153.6h153.6a153.6 153.6 0 0 0 153.6-153.6z" fill="#FFFFFF" p-id="1524"></path></svg>